<svg xmlns="http://www.w3.org/2000/svg" height="306.761" width="342.694" version="1.1" data-name="Layer 1" id="Layer_1"><defs id="defs910"><style id="style908">.cls-2,.cls-4{stroke:#0f6;stroke-miterlimit:10;stroke-width:17px}.cls-4{fill:none;stroke:#0082aa}</style></defs><path id="path916" d="M141.467 32.08a109.6 109.6 0 00-123.87-5.73l6.89 7.21a99.87 99.87 0 01110.36 5.73c2.1-2.44 4.32-4.89 6.62-7.21z" class="cls-2"/><path id="path918" d="M159.367 65.59a99.56 99.56 0 0115.7 51.18c3.24.1 6.5.19 9.75.25a109.18 109.18 0 00-18.85-59.09 84.53 84.53 0 00-6.6 7.66z" class="cls-2"/><path id="path920" d="M113.287 130.35l-.3-5.68A115.54 115.54 0 01221.307 3.14l7.37-.45-3.22 21.91-4.76.38a93.27 93.27 0 00-85.12 79.87 95 95 0 00-.85 19.2l.37 6.35z" fill="#fff"/><path id="path922" d="M129.647 103.93A99.78 99.78 0 01220.217 19l1.45-9.88a109.51 109.51 0 00-82.3 173.17 89.14 89.14 0 006.61-7.54 99.42 99.42 0 01-16.33-70.82z" class="cls-4"/><path id="path924" d="M321.227 154.85a99.79 99.79 0 01-154.75 41.87c-2.1 2.48-4.32 4.87-6.63 7.18a109.53 109.53 0 00171.25-47.6z" class="cls-4"/><path id="line928" stroke-width="26" fill="none" stroke-miterlimit="10" stroke="#0f6" d="M245.737 158.761v117.09"/><path id="path926" d="M144.297 191.5a99.8 99.8 0 01-123.65 11.35l-7.21 6.9a109.51 109.51 0 00171.41-92.68c-3.25-.06-6.51-.15-9.75-.25a99.51 99.51 0 01-30.8 74.68z" class="cls-2"/><path id="line930" stroke-width="26" stroke="#0082aa" fill="none" stroke-miterlimit="10" d="M73.737 157.761v149"/></svg>