<svg id="Layer_1" data-name="Layer 1" xmlns="http://www.w3.org/2000/svg" xmlns:xlink="http://www.w3.org/1999/xlink" viewBox="0 0 1080 1080"><defs><style>.cls-1{fill:url(#linear-gradient);}.cls-2{fill:url(#linear-gradient-2);}.cls-3{fill:url(#linear-gradient-3);}.cls-4{fill:url(#linear-gradient-4);}.cls-5{fill:url(#linear-gradient-5);}.cls-6{fill:url(#linear-gradient-6);}.cls-7{fill:url(#linear-gradient-7);}.cls-8{fill:url(#linear-gradient-8);}.cls-9{fill:url(#linear-gradient-9);}</style><linearGradient id="linear-gradient" x1="729.13" y1="731.88" x2="808.73" y2="731.88" gradientUnits="userSpaceOnUse"><stop offset="0.01" stop-color="#fff"/><stop offset="1" stop-color="#e6e6e6"/></linearGradient><linearGradient id="linear-gradient-2" x1="362.54" y1="363.29" x2="725.94" y2="363.29" gradientUnits="userSpaceOnUse"><stop offset="0.01" stop-color="#fff"/><stop offset="0.99" stop-color="#e6e6e6"/></linearGradient><linearGradient id="linear-gradient-3" x1="213.5" y1="776.64" x2="292.14" y2="776.64" xlink:href="#linear-gradient-2"/><linearGradient id="linear-gradient-4" x1="808.71" y1="646.84" x2="1059.81" y2="646.84" xlink:href="#linear-gradient-2"/><linearGradient id="linear-gradient-5" x1="489.49" y1="718.15" x2="729.15" y2="718.15" xlink:href="#linear-gradient-2"/><linearGradient id="linear-gradient-6" x1="292.11" y1="507.7" x2="611.71" y2="507.7" gradientUnits="userSpaceOnUse"><stop offset="0.01" stop-color="#5ff4fa"/><stop offset="0.69" stop-color="#42e3e4"/><stop offset="1" stop-color="#34dad9"/></linearGradient><linearGradient id="linear-gradient-7" x1="45.81" y1="153.86" x2="485.67" y2="153.86" gradientUnits="userSpaceOnUse"><stop offset="0.15" stop-color="#5ff4fa"/><stop offset="0.69" stop-color="#42e3e4"/><stop offset="0.93" stop-color="#34dad9"/></linearGradient><linearGradient id="linear-gradient-8" x1="729.13" y1="731.88" x2="808.73" y2="731.88" xlink:href="#linear-gradient-7"/><linearGradient id="linear-gradient-9" x1="34.1" y1="723.59" x2="213.5" y2="723.59" xlink:href="#linear-gradient-7"/></defs><title>prody-02</title><path class="cls-1" d="M808.73,692.79c-.2-3.77-.53-7.56-.53-11.36,0-38.32-.37-76.64.22-114.94.13-9.16-2.87-10.92-11.16-10.68-19.29.57-38.62.51-57.94,0-7.3-.17-9.6,1.71-9.54,9.34.38,44.33.22,88.68.16,133,0,3.44-.51,6.86-.79,10.3q0,40.23,0,80.48c.28,3.75.81,7.5.81,11.27.06,33.17.17,66.36-.09,99.55,0,6,1.43,8.23,7.85,8.07,19.6-.41,39.2-.68,58.75.09,9.45.37,12.1-1.95,12-11.75-.48-39.79.09-79.6.27-119.42Q808.71,734.8,808.73,692.79Z"/><path class="cls-2" d="M725.75,84.49c-3.73,23.39-7,46.87-10.15,70.35-.9,6.82-5.66,5.66-9.82,5.9-45.91,2.54-88.94,14.73-128.54,38.32-12.73,7.61-25.27,15.61-36,26.09-1.12,4.23-4.47,6.82-7.5,9.47a239.35,239.35,0,0,0-46.19,55.2c-.24.35-.46.73-.68,1.08a1.19,1.19,0,0,1-.09.15c-26.72,43.47-40.09,90.5-40.6,141.78-.5,51.43,12.59,98.56,38.57,142.54a48.66,48.66,0,0,1,3.63,6.75,22.24,22.24,0,0,0-.63,2.79,222,222,0,0,1-54.92,62.48c-31.33-43.65-53.6-91.27-63.57-144.32C351,405.44,370,315.56,425.25,233.2c1.91-2.85,3.58-5.88,5.37-8.82,16.86-21,35.54-40.4,55.05-59,29.62-24,61.45-44.22,96.81-58.84,44.18-18.24,90.44-25.35,137.77-27.28C724.08,79.12,726.67,78.7,725.75,84.49Z"/><path class="cls-3" d="M292.11,790.26c-.11,66.45-.43,132.92-.06,199.37.06,9.49-2.68,11.46-11.56,11.13-19.27-.7-38.6-.54-57.89,0-7.06.18-9-1.71-9-8.9.28-64.56.18-129.13.15-193.67,0-2.85-.19-5.7-.28-8.53V708.05c.09-48.43.44-96.86.06-145.29-.06-8.61,2.37-10.52,10.55-10.26,19.27.64,38.61.62,57.9,0,7.78-.24,10.06,1.73,10,9.75-.41,45.27-.21,90.54-.19,135.79,0,3.8.22,7.59.33,11.38Q292.1,749.86,292.11,790.26Z"/><path class="cls-4" d="M1059.81,527.73c-40.75,125.36-120.81,210-247.4,248.35a28.36,28.36,0,0,1-3.7.67q0-42,0-84Q928.49,647.94,973.9,528.3c3.66-9.67,7.23-12.89,18.08-10.74C1014.21,522,1036.84,524.42,1059.81,527.73Z"/><path class="cls-5" d="M729.15,708.46q0,40.23,0,80.48c-90.08,2.22-170.13-24.81-239.64-82.4,19.95-18.11,37.81-38.15,54.54-59.24,0,0,0,0,.05-.07C598.12,690.75,659.89,710.92,729.15,708.46Z"/><path class="cls-6" d="M548,640.81c-1.41,2.06-2.61,4.28-3.93,6.42,0,0,0,0,0,.07-16.73,21.09-34.59,41.13-54.54,59.24-31.57,25.58-65.53,47.2-103.7,61.66-30.25,11.47-61.34,19.43-93.68,22.06q0-40.38,0-80.81c49.56-6.64,94.29-25,133.77-55.77,2.46-1.91,4.65-4.19,7-6.29a222,222,0,0,0,54.92-62.48,22.24,22.24,0,0,1,.63-2.79c1.12-4,3.21-7.54,5.22-11.16,27.32-49,38.56-101.15,33.59-157.18-3.73-41.88-16.64-80.42-37.58-116.55a30.12,30.12,0,0,1-2.83-6.18,1.19,1.19,0,0,0,.09-.15c.22-.35.44-.73.68-1.08a239.35,239.35,0,0,1,46.19-55.2c3-2.65,6.38-5.24,7.5-9.47C579,277,602.39,334.46,609.43,398.45,619.16,487,597.59,567.41,548,640.81Z"/><path class="cls-7" d="M485.67,165.39c-19.51,18.59-38.19,38-55.05,59-27.86-20.63-57.41-38.19-90.89-48.1Q221,141.11,114.27,204.15c-13.7,8.13-13.74,8.11-24.79-3.47-13.57-14.18-27.1-28.41-40.73-42.53-3-3.11-4.85-4.91.3-8.35,52.11-34.75,108.46-58.49,171.22-64.61Q356.18,72,467.3,151.93C473.46,156.36,479.53,160.89,485.67,165.39Z"/><path class="cls-8" d="M808.71,776.75c-.18,39.82-.75,79.63-.27,119.42.11,9.8-2.54,12.12-12,11.75-19.55-.77-39.15-.5-58.75-.09-6.42.16-7.89-2.06-7.85-8.07.26-33.19.15-66.38.09-99.55,0-3.77-.53-7.52-.81-11.27q0-40.25,0-80.48c.28-3.44.79-6.86.79-10.3.06-44.33.22-88.68-.16-133-.06-7.63,2.24-9.51,9.54-9.34,19.32.51,38.65.57,57.94,0,8.29-.24,11.29,1.52,11.16,10.68-.59,38.3-.26,76.62-.22,114.94,0,3.8.33,7.59.53,11.36Q808.7,734.79,808.71,776.75Z"/><path class="cls-9" d="M213.5,708.05v81.57C149,781.36,91.58,756.08,39.28,718c-7.22-5.24-6.38-7.54-.64-12.8,15.61-14.34,30.87-29.07,45.91-44,4.4-4.39,7.45-4.8,12.69-1.17C132.41,684.61,170.9,701.36,213.5,708.05Z"/></svg>